<?xml version="1.0" standalone="no"?>
<!DOCTYPE svg PUBLIC "-//W3C//DTD SVG 20010904//EN"
 "http://www.w3.org/TR/2001/REC-SVG-20010904/DTD/svg10.dtd">
<svg version="1.0" xmlns="http://www.w3.org/2000/svg"
 width="500.000000pt" height="500.000000pt" viewBox="0 0 500.000000 500.000000"
 preserveAspectRatio="xMidYMid meet">
<metadata>
Created by potrace 1.14, written by Peter Selinger 2001-2017
</metadata>
<g transform="translate(0.000000,500.000000) scale(0.100000,-0.100000)"
fill="#000000" stroke="none">
<path d="M0 2500 l0 -2500 2500 0 2500 0 0 2500 0 2500 -2500 0 -2500 0 0
-2500z m3958 944 c94 -69 172 -130 172 -136 0 -6 -39 -128 -86 -272 l-85 -262
-255 -127 c-140 -70 -254 -130 -254 -134 1 -5 75 -62 166 -128 91 -66 168
-123 170 -126 5 -8 -174 -561 -185 -572 -5 -5 -122 -64 -261 -133 l-252 -124
-989 0 c-544 0 -989 3 -989 6 0 3 111 353 246 777 136 425 253 796 262 825 8
28 19 52 24 52 10 0 342 -248 345 -258 2 -4 -68 -229 -156 -500 l-158 -492
775 2 776 3 87 268 86 267 -548 0 c-446 0 -549 2 -549 13 0 7 22 83 50 168
l49 154 550 -2 c303 -2 552 1 555 5 4 7 89 268 140 430 l7 22 -1378 0 -1377 0
269 200 269 200 1175 0 1176 0 173 -126z"/>
</g>
</svg>
